  <!-- Process Flow Numbers -->
  <circle cx="370" cy="130" r="12" fill="#2563eb" stroke="white" stroke-width="2"/>
  <text x="370" y="135" class="small-text" text-anchor="middle" fill="white" font-weight="bold">1</text>
  
  <circle cx="900" cy="210" r="12" fill="#16a34a" stroke="white" stroke-width="2"/>
  <text x="900" y="215" class="small-text" text-anchor="middle" fill="white" font-weight="bold">2</text>
  
  <circle cx="800" cy="290" r="12" fill="#7c2d12" stroke="white" stroke-width="2"/>
  <text x="800" y="295" class="small-text" text-anchor="middle" fill="white" font-weight="bold">3</text>
  
  <circle cx="950" cy="370" r="12" fill="#dc2626" stroke="white" stroke-width="2"/>
  <text x="950" y="375" class="small-text" text-anchor="middle" fill="white" font-weight="bold">4</text>
  
  <circle cx="1000" cy="580" r="12" fill="#ea580c" stroke="white" stroke-width="2"/>
  <text x="1000" y="585" class="small-text" text-anchor="middle" fill="white" font-weight="bold">5</text>
  
  <circle cx="370" cy="220" r="12" fill="#059669" stroke="white" stroke-width="2"/>
  <text x="370" y="225" class="small-text" text-anchor="middle" fill="white" font-weight="bold">6</text><svg viewBox="0 0 1200 800" xmlns="http://www.w3.org/2000/svg">
  <defs>
    <style>
      .title { font-family: Arial, sans-serif; font-size: 20px; font-weight: bold; fill: #2563eb; }
      .layer-title { font-family: Arial, sans-serif; font-size: 14px; font-weight: bold; fill: #1f2937; }
      .component-text { font-family: Arial, sans-serif; font-size: 11px; fill: #374151; }
      .small-text { font-family: Arial, sans-serif; font-size: 9px; fill: #6b7280; }
      .api-text { font-family: Arial, sans-serif; font-size: 10px; fill: #065f46; font-weight: bold; }
      .layer-bg { fill: #f8fafc; stroke: #e2e8f0; stroke-width: 2; rx: 8; }
      .frontend-bg { fill: #eff6ff; stroke: #3b82f6; stroke-width: 2; rx: 8; }
      .backend-bg { fill: #f0fdf4; stroke: #16a34a; stroke-width: 2; rx: 8; }
      .external-bg { fill: #fef3c7; stroke: #f59e0b; stroke-width: 2; rx: 8; }
      .component { fill: white; stroke: #d1d5db; stroke-width: 1.5; rx: 6; }
      .arrow { stroke: #4b5563; stroke-width: 2; fill: none; marker-end: url(#arrowhead); }
      .data-flow { stroke: #16a34a; stroke-width: 2; fill: none; marker-end: url(#arrowhead); stroke-dasharray: 5,5; }
      .api-call { stroke: #dc2626; stroke-width: 2; fill: none; marker-end: url(#arrowhead); }
    </style>
    <marker id="arrowhead" markerWidth="10" markerHeight="7" refX="9" refY="3.5" orient="auto">
      <polygon points="0 0, 10 3.5, 0 7" fill="#4b5563" />
    </marker>
  </defs>
  
  <!-- Title -->
  <text x="600" y="30" class="title" text-anchor="middle">Hedwig Research Paper Search - Current Architecture</text>
  
  <!-- Frontend Layer -->
  <rect x="50" y="80" width="500" height="180" class="frontend-bg"/>
  <text x="70" y="100" class="layer-title">Frontend Layer (React + TypeScript)</text>
  
  <!-- React Components -->
  <rect x="70" y="120" width="120" height="60" class="component"/>
  <text x="130" y="140" class="component-text" text-anchor="middle">React Components</text>
  <text x="130" y="155" class="small-text" text-anchor="middle">• Search Form</text>
  <text x="130" y="168" class="small-text" text-anchor="middle">• Results Display</text>
  
  <!-- Services -->
  <rect x="210" y="120" width="100" height="60" class="component"/>
  <text x="260" y="140" class="component-text" text-anchor="middle">API Services</text>
  <text x="260" y="155" class="small-text" text-anchor="middle">• HTTP Client</text>
  <text x="260" y="168" class="small-text" text-anchor="middle">• Error Handling</text>
  
  <!-- Types -->
  <rect x="330" y="120" width="100" height="60" class="component"/>
  <text x="380" y="140" class="component-text" text-anchor="middle">TypeScript Types</text>
  <text x="380" y="155" class="small-text" text-anchor="middle">• Paper Interface</text>
  <text x="380" y="168" class="small-text" text-anchor="middle">• Search Types</text>
  
  <!-- Styling -->
  <rect x="450" y="120" width="80" height="60" class="component"/>
  <text x="490" y="140" class="component-text" text-anchor="middle">Tailwind CSS</text>
  <text x="490" y="155" class="small-text" text-anchor="middle">• Responsive</text>
  <text x="490" y="168" class="small-text" text-anchor="middle">• Modern UI</text>
  
  <!-- Build Tools -->
  <rect x="70" y="195" width="460" height="50" class="component"/>
  <text x="300" y="215" class="component-text" text-anchor="middle">Vite (Development Server + Build Tool)</text>
  <text x="300" y="230" class="small-text" text-anchor="middle">Hot Reload • TypeScript Support • Fast Builds</text>
  
  <!-- Backend Layer -->
  <rect x="650" y="80" width="500" height="450" class="backend-bg"/>
  <text x="670" y="100" class="layer-title">Backend Layer (FastAPI + Clean Architecture)</text>
  
  <!-- API Layer -->
  <rect x="670" y="120" width="460" height="70" class="layer-bg"/>
  <text x="680" y="140" class="layer-title">API Layer</text>
  <rect x="690" y="150" width="140" height="30" class="component"/>
  <text x="760" y="170" class="component-text" text-anchor="middle">REST Endpoints</text>
  <rect x="850" y="150" width="120" height="30" class="component"/>
  <text x="910" y="170" class="component-text" text-anchor="middle">DTOs</text>
  <rect x="990" y="150" width="120" height="30" class="component"/>
  <text x="1050" y="170" class="component-text" text-anchor="middle">FastAPI Router</text>
  
  <!-- Application Layer -->
  <rect x="670" y="210" width="460" height="70" class="layer-bg"/>
  <text x="680" y="230" class="layer-title">Application Layer</text>
  <rect x="690" y="240" width="140" height="30" class="component"/>
  <text x="760" y="260" class="component-text" text-anchor="middle">Use Cases</text>
  <rect x="850" y="240" width="120" height="30" class="component"/>
  <text x="910" y="260" class="component-text" text-anchor="middle">Services</text>
  <rect x="990" y="240" width="120" height="30" class="component"/>
  <text x="1050" y="260" class="component-text" text-anchor="middle">Business Logic</text>
  
  <!-- Domain Layer -->
  <rect x="670" y="300" width="460" height="70" class="layer-bg"/>
  <text x="680" y="320" class="layer-title">Domain Layer</text>
  <rect x="690" y="330" width="140" height="30" class="component"/>
  <text x="760" y="350" class="component-text" text-anchor="middle">Paper Entity</text>
  <rect x="850" y="330" width="140" height="30" class="component"/>
  <text x="920" y="350" class="component-text" text-anchor="middle">SearchQuery Entity</text>
  <rect x="1010" y="330" width="100" height="30" class="component"/>
  <text x="1060" y="350" class="component-text" text-anchor="middle">Interfaces</text>
  
  <!-- Infrastructure Layer -->
  <rect x="670" y="390" width="460" height="130" class="layer-bg"/>
  <text x="680" y="410" class="layer-title">Infrastructure Layer</text>
  <rect x="690" y="420" width="100" height="40" class="component"/>
  <text x="740" y="435" class="component-text" text-anchor="middle">Repository</text>
  <text x="740" y="450" class="component-text" text-anchor="middle">Pattern</text>
  
  <rect x="810" y="420" width="80" height="40" class="component"/>
  <text x="850" y="435" class="component-text" text-anchor="middle">arXiv</text>
  <text x="850" y="450" class="component-text" text-anchor="middle">Client</text>
  
  <rect x="910" y="420" width="80" height="40" class="component"/>
  <text x="950" y="435" class="component-text" text-anchor="middle">OpenAlex</text>
  <text x="950" y="450" class="component-text" text-anchor="middle">Client</text>
  
  <rect x="1010" y="420" width="80" height="40" class="component"/>
  <text x="1050" y="435" class="component-text" text-anchor="middle">Crossref</text>
  <text x="1050" y="450" class="component-text" text-anchor="middle">Client</text>
  
  <!-- Async Processing -->
  <rect x="690" y="480" width="400" height="30" class="component"/>
  <text x="890" y="500" class="component-text" text-anchor="middle">Async/Await Concurrent API Calls</text>
  
  <!-- External APIs -->
  <rect x="850" y="580" width="300" height="150" class="external-bg"/>
  <text x="860" y="600" class="layer-title">External Research APIs</text>
  
  <rect x="870" y="620" width="80" height="40" class="component"/>
  <text x="910" y="635" class="api-text" text-anchor="middle">arXiv API</text>
  <text x="910" y="650" class="small-text" text-anchor="middle">Papers</text>
  
  <rect x="970" y="620" width="80" height="40" class="component"/>
  <text x="1010" y="635" class="api-text" text-anchor="middle">OpenAlex</text>
  <text x="1010" y="650" class="small-text" text-anchor="middle">Metadata</text>
  
  <rect x="1070" y="620" width="70" height="40" class="component"/>
  <text x="1105" y="635" class="api-text" text-anchor="middle">Crossref</text>
  <text x="1105" y="650" class="small-text" text-anchor="middle">Citations</text>
  
  <!-- User Browser -->
  <rect x="70" y="580" width="120" height="60" class="component"/>
  <text x="130" y="605" class="component-text" text-anchor="middle">User Browser</text>
  <text x="130" y="620" class="small-text" text-anchor="middle">http://localhost:5173</text>
  
  <!-- Server -->
  <rect x="250" y="580" width="120" height="60" class="component"/>
  <text x="310" y="605" class="component-text" text-anchor="middle">FastAPI Server</text>
  <text x="310" y="620" class="small-text" text-anchor="middle">http://localhost:8000</text>
  
  <!-- Data Flow Arrows -->
  <!-- Frontend to Backend -->
  <line x1="260" y1="195" x2="260" y2="300" class="arrow"/>
  <line x1="260" y1="300" x2="650" y2="300" class="arrow"/>
  <line x1="650" y1="300" x2="650" y2="155" class="arrow"/>
  <text x="400" y="290" class="small-text">HTTP Requests</text>
  
  <!-- API Layer to Application -->
  <line x1="900" y1="190" x2="900" y2="240" class="arrow"/>
  
  <!-- Application to Domain -->
  <line x1="900" y1="280" x2="900" y2="330" class="arrow"/>
  
  <!-- Application to Infrastructure -->
  <line x1="900" y1="280" x2="900" y2="390" class="arrow"/>
  
  <!-- Infrastructure to External APIs -->
  <line x1="850" y1="460" x2="850" y2="520" class="api-call"/>
  <line x1="850" y1="520" x2="910" y2="520" class="api-call"/>
  <line x1="910" y1="520" x2="910" y2="620" class="api-call"/>
  
  <line x1="950" y1="460" x2="950" y2="520" class="api-call"/>
  <line x1="950" y1="520" x2="1010" y2="520" class="api-call"/>
  <line x1="1010" y1="520" x2="1010" y2="620" class="api-call"/>
  
  <line x1="1050" y1="460" x2="1050" y2="520" class="api-call"/>
  <line x1="1050" y1="520" x2="1105" y2="520" class="api-call"/>
  <line x1="1105" y1="520" x2="1105" y2="620" class="api-call"/>
  
  <!-- User interaction -->
  <line x1="130" y1="580" x2="130" y2="560" class="data-flow"/>
  <line x1="130" y1="560" x2="300" y2="560" class="data-flow"/>
  <line x1="300" y1="560" x2="300" y2="260" class="data-flow"/>
  <line x1="300" y1="260" x2="130" y2="260" class="data-flow"/>
  <text x="200" y="550" class="small-text">User Interaction</text>
  
  <!-- Server Communication -->
  <line x1="310" y1="580" x2="310" y2="540" class="arrow"/>
  <line x1="310" y1="540" x2="760" y2="540" class="arrow"/>
  <line x1="760" y1="540" x2="760" y2="190" class="arrow"/>
  <text x="500" y="530" class="small-text">API Communication</text>
  
  <!-- Legend -->
  <rect x="50" y="700" width="350" height="80" class="layer-bg"/>
  <text x="60" y="720" class="layer-title">Legend</text>
  <line x1="70" y1="735" x2="110" y2="735" class="arrow"/>
  <text x="120" y="740" class="small-text">Request Flow</text>
  <line x1="70" y1="750" x2="110" y2="750" class="data-flow"/>
  <text x="120" y="755" class="small-text">User Interaction</text>
  <line x1="70" y1="765" x2="110" y2="765" class="api-call"/>
  <text x="120" y="770" class="small-text">External API Calls</text>
  
  <!-- Key Features -->
  <rect x="450" y="700" width="700" height="80" class="layer-bg"/>
  <text x="460" y="720" class="layer-title">Key Features</text>
  <text x="470" y="740" class="small-text">• Multi-source search (arXiv, OpenAlex, Crossref) • Concurrent API calls • Clean Architecture</text>
  <text x="470" y="755" class="small-text">• SOLID principles • Repository pattern • Modern React with TypeScript • Responsive design</text>
  <text x="470" y="770" class="small-text">• FastAPI with async/await • Domain-driven design • Type safety throughout</text>
</svg>